<?xml version="1.0" encoding="UTF-8"?>
<svg id="Layer_2" data-name="Layer 2" xmlns="http://www.w3.org/2000/svg" viewBox="0 0 14 15.47">
  <defs>
    <style>
      .cls-1 {
        fill-rule: evenodd;
      }
    </style>
  </defs>
  <g id="Layer_1-2" data-name="Layer 1">
    <path class="cls-1" d="M3.71,14.14c-.22,0-.78-.11-1.35-.26-.56-.15-.94-.34-.94-.34-.21-.11-.29-.27-.32-.44,0,0-.07-.54-.07-1.59,0-.8.04-1.23.06-1.36.02-.14.09-.26.28-.25.19,0,.45,0,1.06.11.73.13,1.09.24,1.26.3.16.05.32.17.35.39,0,0,.08.58.08,1.47,0,.72-.05,1.42-.08,1.65-.02.21-.13.33-.36.32ZM7.02,11.68c0-.13-.05-.24-.16-.34l-1.89-1.75c-.22-.22-.48-.35-.79-.41,0,0-.71-.17-1.78-.33-1.06-.17-1.34-.15-1.34-.15-.94,0-.98.95-.99,1.04-.02.23-.08.84-.08,1.68,0,1,.04,1.69.1,2.11.08.64.61.95.85,1.06.06.03.72.29,1.38.48.45.13,1.16.32,1.5.37.11.02.76.12,1.07-.26l2.01-2.46c.08-.11.12-.16.12-.34v-.71ZM11.41,8.09c-.29-.03-.57-.03-.86-.02l-4.52.4s-.3.04-.47.26c-.13.17-.16.31-.16.31.06.06.08.08.12.11l1.79,1.72c.2.19.32.37.32.64v.97c0,.17-.02.32-.12.45l-.96,1.23.96.35c.37.11.71.11,1.09.06l4.15-.9s.75-.19.75-.86v-2.39s-.03-.09-.08-.08l-2.65.49c-.1.02-.16.1-.16.19v1.16c0,.07.09.12.16.11l.83-.18s.08.02.08.07v.37c0,.08-.07.13-.16.15l-.94.19s-.63.15-.63-.49v-1.48c0-.64.49-.71.49-.71l2.92-.53c.08-.01.14-.08.14-.15v-.6c0-.66-.68-.7-.68-.7l-1.4-.14ZM5.99,1.83c1.08.04,1.91,1.02,1.85,2.2-.06,1.18-1,2.12-2.05,2.08-1.08-.04-1.87-1.03-1.81-2.21.06-1.18.97-2.11,2.01-2.07ZM10.36,4.6c.04-.81.65-1.44,1.37-1.42.68.03,1.23.71,1.19,1.49-.04.81-.66,1.42-1.38,1.4-.69-.03-1.22-.69-1.19-1.48ZM14,4.7c0-1.59-1.26-2.87-2.8-2.87-.9,0-1.72.45-2.25,1.12C8.55,1.25,7.04,0,5.24,0,3.1,0,1.37,1.76,1.38,3.92c0,2.18,1.74,3.96,3.86,3.95.12,0,5.97-.37,5.95-.37,1.69-.14,2.81-1.24,2.8-2.79Z"/>
  </g>
</svg>