<svg xmlns="http://www.w3.org/2000/svg" xmlns:xlink="http://www.w3.org/1999/xlink" width="181" height="181" viewBox="0 0 181 181"><defs><filter id="a" x="0" y="0" width="181" height="181" filterUnits="userSpaceOnUse"><feOffset dx="9" dy="10" input="SourceAlpha"/><feGaussianBlur stdDeviation="7" result="b"/><feFlood flood-opacity="0.471"/><feComposite operator="in" in2="b"/><feComposite in="SourceGraphic"/></filter></defs><g transform="translate(-184 -5426)"><g transform="matrix(1, 0, 0, 1, 184, 5426)" filter="url(#a)"><circle cx="69.5" cy="69.5" r="69.5" transform="translate(12 11)" fill="#fff"/></g><g transform="translate(228 5469)"><path d="M37.41,74.82A37.41,37.41,0,1,0,0,37.41,37.32,37.32,0,0,0,37.41,74.82Z" fill="#2775ca"/><path d="M737.557,532.647c0-5.456-3.273-7.326-9.82-8.105-4.676-.624-5.612-1.87-5.612-4.053s1.559-3.585,4.676-3.585c2.806,0,4.365.935,5.144,3.273a1.172,1.172,0,0,0,1.091.779h2.494a1.065,1.065,0,0,0,1.091-1.091v-.156a7.787,7.787,0,0,0-7.014-6.391v-3.741c0-.624-.468-1.091-1.247-1.247h-2.338c-.624,0-1.091.468-1.247,1.247v3.585c-4.676.624-7.638,3.741-7.638,7.638,0,5.144,3.117,7.17,9.664,7.95,4.365.779,5.768,1.715,5.768,4.209s-2.182,4.209-5.144,4.209c-4.053,0-5.456-1.715-5.923-4.053a1.138,1.138,0,0,0-1.091-.935h-2.65a1.065,1.065,0,0,0-1.091,1.091v.156c.623,3.9,3.117,6.7,8.261,7.482v3.741c0,.623.468,1.091,1.247,1.247h2.338c.624,0,1.091-.468,1.247-1.247v-3.741C734.44,540.129,737.557,536.855,737.557,532.647Z" transform="translate(-689.859 -489.313)" fill="#fff"/><path d="M268.15,340.459a23.325,23.325,0,0,1,0-43.8,1.565,1.565,0,0,0,.935-1.559v-2.182a1.185,1.185,0,0,0-.935-1.247.939.939,0,0,0-.624.156,28.05,28.05,0,0,0,0,53.465.948.948,0,0,0,1.4-.624c.156-.156.156-.312.156-.623v-2.182A2.076,2.076,0,0,0,268.15,340.459Zm16.523-48.633a.948.948,0,0,0-1.4.624c-.156.156-.156.312-.156.624v2.182a2.068,2.068,0,0,0,.935,1.559,23.325,23.325,0,0,1,0,43.8,1.565,1.565,0,0,0-.935,1.559v2.182a1.185,1.185,0,0,0,.935,1.247.939.939,0,0,0,.624-.156,28.17,28.17,0,0,0,0-53.621Z" transform="translate(-238.689 -280.759)" fill="#fff"/></g></g></svg>