<svg xmlns="http://www.w3.org/2000/svg" xmlns:xlink="http://www.w3.org/1999/xlink" width="178.746" height="178.747" viewBox="0 0 178.746 178.747"><defs><filter id="a" x="0" y="0" width="178.746" height="178.747" filterUnits="userSpaceOnUse"><feOffset dx="9" dy="10" input="SourceAlpha"/><feGaussianBlur stdDeviation="7" result="b"/><feFlood flood-opacity="0.471"/><feComposite operator="in" in2="b"/><feComposite in="SourceGraphic"/></filter><clipPath id="c"><path d="M720.6,306.4h52.7v27.558H720.6Z" transform="translate(-720.6 -306.4)"/></clipPath><clipPath id="d"><path d="M720.6,0h26.357V59.3H720.6Z" transform="translate(-720.6)"/></clipPath><clipPath id="e"><path d="M975,0h26.357V59.3H975Z" transform="translate(-975)"/></clipPath><clipPath id="f"><path d="M720.6,470.3h26.357v37.131H720.6Z" transform="translate(-720.6 -470.3)"/></clipPath><clipPath id="g"><path d="M975,470.3h26.367v37.131H975Z" transform="translate(-975 -470.3)"/></clipPath></defs><g transform="translate(10.906 9.878)"><g transform="matrix(1, 0, 0, 1, -10.91, -9.88)" filter="url(#a)"><path d="M137.594,69.249A68.373,68.373,0,1,1,69.221.876a68.373,68.373,0,0,1,68.373,68.373" transform="translate(11.15 10.12)" fill="#fff"/></g><g transform="translate(-178.32 26.621)"><g transform="translate(220.914 31.744)" opacity="0.6"><g clip-path="url(#c)"><path d="M746.957,306.4,720.6,318.387l26.357,15.572L773.3,318.387Z" transform="translate(-720.6 -306.4)" fill="#010101"/></g></g><g transform="translate(220.914)" opacity="0.45"><g clip-path="url(#d)"><path d="M720.6,43.731,746.957,59.3V0Z" transform="translate(-720.6)" fill="#010101"/></g></g><g transform="translate(247.271)" opacity="0.8"><g clip-path="url(#e)"><path d="M975,0V59.3l26.346-15.572Z" transform="translate(-975)" fill="#010101"/></g></g><g transform="translate(220.914 48.724)" opacity="0.45"><g clip-path="url(#f)"><path d="M720.6,470.3l26.357,37.131v-21.56Z" transform="translate(-720.6 -470.3)" fill="#010101"/></g></g><g transform="translate(247.271 48.724)" opacity="0.8"><g clip-path="url(#g)"><path d="M975,485.872v21.56l26.367-37.131Z" transform="translate(-975 -470.3)" fill="#010101"/></g></g></g></g></svg>