<svg xmlns="http://www.w3.org/2000/svg" xmlns:xlink="http://www.w3.org/1999/xlink" width="181" height="181" viewBox="0 0 181 181"><defs><filter id="a" x="0" y="0" width="181" height="181" filterUnits="userSpaceOnUse"><feOffset dx="9" dy="10" input="SourceAlpha"/><feGaussianBlur stdDeviation="7" result="b"/><feFlood flood-opacity="0.471"/><feComposite operator="in" in2="b"/><feComposite in="SourceGraphic"/></filter></defs><g transform="translate(-222 -10298)"><g transform="matrix(1, 0, 0, 1, 222, 10298)" filter="url(#a)"><path d="M69.5,0A69.5,69.5,0,1,1,0,69.5,69.5,69.5,0,0,1,69.5,0Z" transform="translate(12 11)" fill="#fff"/></g><g transform="translate(263.265 10347.075)"><path d="M177.5,1325.771v.159h.148a.155.155,0,0,0,.08-.02.071.071,0,0,0,.03-.061.068.068,0,0,0-.03-.059.144.144,0,0,0-.08-.02H177.5Zm.15-.113a.275.275,0,0,1,.178.052.171.171,0,0,1,.063.141.162.162,0,0,1-.05.124.245.245,0,0,1-.143.059l.2.227h-.153l-.183-.225H177.5v.225h-.128v-.6h.279Zm-.04.811a.478.478,0,0,0,.2-.04.51.51,0,0,0,.159-.108.5.5,0,0,0,.108-.159.516.516,0,0,0,0-.394.522.522,0,0,0-.108-.159.516.516,0,0,0-.159-.108.5.5,0,0,0-.2-.037.524.524,0,0,0-.2.037.509.509,0,0,0-.163.108.515.515,0,0,0-.106.557.475.475,0,0,0,.106.159.513.513,0,0,0,.163.108.5.5,0,0,0,.2.04m0-1.155a.668.668,0,0,1,.468.191.643.643,0,0,1,.141.711.674.674,0,0,1-.141.207.715.715,0,0,1-.21.139.65.65,0,0,1-.258.052.666.666,0,0,1-.261-.052.682.682,0,0,1-.211-.139.671.671,0,0,1-.139-.214.642.642,0,0,1,.141-.71.629.629,0,0,1,.211-.139.664.664,0,0,1,.261-.052m-60.967-2.32a1.979,1.979,0,1,1,1.982,2.092,1.961,1.961,0,0,1-1.982-2.092m5.291,0v-3.269h-1.421v.8a2.477,2.477,0,0,0-2.064-.957,3.436,3.436,0,0,0,0,6.863,2.478,2.478,0,0,0,2.064-.958v.794h1.419v-3.269Zm48.014,0a1.979,1.979,0,1,1,1.983,2.092,1.961,1.961,0,0,1-1.983-2.092m5.292,0V1317.1h-1.422v3.42a2.477,2.477,0,0,0-2.064-.957,3.436,3.436,0,0,0,0,6.863,2.478,2.478,0,0,0,2.064-.958v.794h1.422Zm-35.67-2.16a1.623,1.623,0,0,1,1.654,1.585h-3.391a1.683,1.683,0,0,1,1.737-1.585m.028-1.274a3.435,3.435,0,0,0,.1,6.863,3.97,3.97,0,0,0,2.679-.916l-.7-1.053a3.115,3.115,0,0,1-1.9.684,1.815,1.815,0,0,1-1.955-1.6h4.852c.014-.177.028-.355.028-.546a3.135,3.135,0,0,0-3.1-3.432m17.156,3.432a1.979,1.979,0,1,1,1.982,2.092,1.961,1.961,0,0,1-1.982-2.092m5.291,0v-3.266h-1.42v.8a2.479,2.479,0,0,0-2.064-.957,3.436,3.436,0,0,0,0,6.863,2.48,2.48,0,0,0,2.064-.958v.794h1.421v-3.269Zm-13.315,0a3.3,3.3,0,0,0,3.486,3.432,3.416,3.416,0,0,0,2.349-.779l-.682-1.149a2.871,2.871,0,0,1-1.712.589,2.1,2.1,0,0,1,0-4.184,2.879,2.879,0,0,1,1.712.588l.682-1.149a3.42,3.42,0,0,0-2.349-.779,3.3,3.3,0,0,0-3.486,3.432m18.319-3.432a1.929,1.929,0,0,0-1.723.958v-.792h-1.408v6.534h1.423v-3.663c0-1.081.465-1.682,1.394-1.682a2.3,2.3,0,0,1,.889.164l.438-1.339a3.025,3.025,0,0,0-1.013-.178m-38.089.684a4.885,4.885,0,0,0-2.665-.684c-1.656,0-2.721.793-2.721,2.092,0,1.065.794,1.723,2.255,1.928l.671.1c.779.109,1.147.315,1.147.684,0,.505-.518.794-1.489.794a3.481,3.481,0,0,1-2.174-.684l-.668,1.108a4.715,4.715,0,0,0,2.829.848c1.887,0,2.981-.889,2.981-2.133,0-1.149-.861-1.75-2.283-1.955l-.67-.1c-.615-.08-1.108-.2-1.108-.641,0-.478.465-.765,1.244-.765a4.214,4.214,0,0,1,2.037.56l.615-1.149Zm18.335-.682a1.924,1.924,0,0,0-1.721.958v-.795h-1.408v6.534h1.421v-3.663c0-1.081.465-1.682,1.394-1.682a2.3,2.3,0,0,1,.889.164l.438-1.339a3.025,3.025,0,0,0-1.012-.178m-12.125.164h-2.324v-1.982h-1.437v1.982h-1.325v1.3h1.325V1324c0,1.516.588,2.419,2.269,2.419a3.339,3.339,0,0,0,1.778-.505l-.41-1.217a2.631,2.631,0,0,1-1.258.37c-.71,0-.942-.438-.942-1.094v-2.953h2.324Zm-21.245,6.536v-4.1a2.433,2.433,0,0,0-2.571-2.6,2.53,2.53,0,0,0-2.3,1.163,2.4,2.4,0,0,0-2.16-1.163,2.162,2.162,0,0,0-1.914.97v-.808H103.56v6.534h1.433v-3.623a1.53,1.53,0,0,1,1.6-1.737c.944,0,1.421.615,1.421,1.723v3.637h1.437v-3.623a1.542,1.542,0,0,1,1.6-1.737c.97,0,1.433.615,1.433,1.723v3.637Z" transform="translate(-99.437 -1264.659)" fill="#231f20"/><path d="M1930.924,978.175v-.956h-.249l-.288.656-.286-.656h-.25v.956h.177v-.72l.269.621h.183l.269-.623v.721h.175Zm-1.579,0v-.792h.319v-.161h-.814v.161h.318v.792h.175Z" transform="translate(-1852.052 -938.312)" fill="#f79410"/><path d="M751.244,170.85H729.71v-38.7h21.535Z" transform="translate(-700.656 -126.888)" fill="#ff5f00"/><path d="M30.419,24.612a24.572,24.572,0,0,1,9.4-19.35,24.612,24.612,0,1,0,0,38.7,24.572,24.572,0,0,1-9.4-19.35" transform="translate(0 0.001)" fill="#eb001b"/><path d="M1039.931,24.612a24.611,24.611,0,0,1-39.821,19.35,24.615,24.615,0,0,0,0-38.7,24.611,24.611,0,0,1,39.82,19.35" transform="translate(-960.29 0.001)" fill="#f79e1b"/></g></g></svg>