<svg xmlns="http://www.w3.org/2000/svg" xmlns:xlink="http://www.w3.org/1999/xlink" width="181" height="181" viewBox="0 0 181 181"><defs><filter id="a" x="0" y="0" width="181" height="181" filterUnits="userSpaceOnUse"><feOffset dx="9" dy="10" input="SourceAlpha"/><feGaussianBlur stdDeviation="7" result="b"/><feFlood flood-opacity="0.475"/><feComposite operator="in" in2="b"/><feComposite in="SourceGraphic"/></filter></defs><g transform="translate(-1508 -5465)"><g transform="matrix(1, 0, 0, 1, 1508, 5465)" filter="url(#a)"><circle cx="69.5" cy="69.5" r="69.5" transform="translate(12 11)" fill="#fff"/></g><g transform="translate(1536 5532)"><path d="M44.813,6.749H38.88a.824.824,0,0,0-.815.7l-2.4,15.213a.494.494,0,0,0,.489.571h2.832a.824.824,0,0,0,.815-.7l.647-4.1a.824.824,0,0,1,.814-.7h1.878c3.908,0,6.163-1.891,6.752-5.638a4.569,4.569,0,0,0-.756-3.83c-.843-.991-2.339-1.515-4.324-1.515Zm.684,5.556c-.324,2.129-1.951,2.129-3.524,2.129h-.9l.628-3.976a.494.494,0,0,1,.488-.417h.41c1.071,0,2.082,0,2.6.611a1.977,1.977,0,0,1,.288,1.653Zm17.049-.069H59.7a.494.494,0,0,0-.488.417l-.126.795-.2-.288c-.615-.893-1.986-1.191-3.355-1.191a6.533,6.533,0,0,0-6.343,5.713,5.362,5.362,0,0,0,1.058,4.364,4.445,4.445,0,0,0,3.578,1.445,5.436,5.436,0,0,0,3.932-1.626l-.127.789a.494.494,0,0,0,.488.573h2.559a.824.824,0,0,0,.815-.7l1.535-9.723a.493.493,0,0,0-.487-.571Zm-3.96,5.529a3.166,3.166,0,0,1-3.205,2.713,2.2,2.2,0,0,1-2.353-2.762,3.18,3.18,0,0,1,3.184-2.734,2.4,2.4,0,0,1,1.895.774,2.459,2.459,0,0,1,.481,2.01Zm19.09-5.529H74.821a.828.828,0,0,0-.683.362L70.2,18.4l-1.669-5.573a.827.827,0,0,0-.791-.588H64.936a.494.494,0,0,0-.469.654l3.145,9.228-2.956,4.173a.494.494,0,0,0,.4.781h2.851a.823.823,0,0,0,.677-.354l9.5-13.706a.494.494,0,0,0-.406-.776Z" transform="translate(-4.727 -0.895)" fill="#253b80"/><path d="M93.593,6.749H87.66a.824.824,0,0,0-.814.7l-2.4,15.213a.494.494,0,0,0,.488.571h3.045a.577.577,0,0,0,.569-.488l.681-4.312a.824.824,0,0,1,.814-.7H91.92c3.909,0,6.163-1.891,6.753-5.638a4.566,4.566,0,0,0-.757-3.83c-.842-.991-2.337-1.515-4.323-1.515Zm.684,5.556c-.324,2.129-1.95,2.129-3.524,2.129H89.86l.629-3.976a.493.493,0,0,1,.488-.417h.41c1.07,0,2.082,0,2.6.611a1.977,1.977,0,0,1,.287,1.653Zm17.048-.069h-2.839a.492.492,0,0,0-.488.417l-.126.795-.2-.288c-.615-.893-1.986-1.191-3.354-1.191a6.532,6.532,0,0,0-6.342,5.713,5.365,5.365,0,0,0,1.057,4.364,4.447,4.447,0,0,0,3.578,1.445,5.436,5.436,0,0,0,3.932-1.626l-.127.789a.494.494,0,0,0,.489.573h2.558a.824.824,0,0,0,.814-.7l1.536-9.723a.5.5,0,0,0-.49-.571Zm-3.96,5.529a3.165,3.165,0,0,1-3.205,2.713,2.2,2.2,0,0,1-2.353-2.762,3.181,3.181,0,0,1,3.184-2.734,2.4,2.4,0,0,1,1.895.774A2.447,2.447,0,0,1,107.366,17.766Zm7.309-10.6L112.24,22.657a.494.494,0,0,0,.488.571h2.448a.823.823,0,0,0,.815-.7l2.4-15.212a.494.494,0,0,0-.488-.572h-2.741a.5.5,0,0,0-.488.418Z" transform="translate(-11.192 -0.894)" fill="#179bd7"/><path d="M6.444,25.425,6.9,22.544,5.887,22.52H1.061L4.415,1.256a.274.274,0,0,1,.272-.232h8.137c2.7,0,4.565.562,5.539,1.672a3.811,3.811,0,0,1,.887,1.663,6,6,0,0,1,.006,2.294l-.01.067v.586l.456.259a3.2,3.2,0,0,1,.924.7,3.28,3.28,0,0,1,.749,1.681,7.111,7.111,0,0,1-.107,2.439,8.59,8.59,0,0,1-1,2.761,5.679,5.679,0,0,1-1.583,1.735,6.422,6.422,0,0,1-2.132.962,10.633,10.633,0,0,1-2.665.308h-.633a1.9,1.9,0,0,0-1.883,1.607l-.048.259-.8,5.079-.036.187a.16.16,0,0,1-.05.108.134.134,0,0,1-.083.03Z" transform="translate(-0.141 -0.136)" fill="#253b80"/><path d="M20.813,7.667q-.036.233-.083.477c-1.073,5.509-4.744,7.412-9.433,7.412H8.91a1.159,1.159,0,0,0-1.146.982L6.542,24.29l-.346,2.2a.611.611,0,0,0,.6.706h4.234a1.019,1.019,0,0,0,1.006-.859l.042-.215.8-5.059.051-.278a1.018,1.018,0,0,1,1.006-.861h.633c4.1,0,7.313-1.666,8.252-6.485.392-2.013.189-3.694-.848-4.877a4.048,4.048,0,0,0-1.159-.893Z" transform="translate(-0.82 -1.016)" fill="#179bd7"/><path d="M19.932,7.092a8.464,8.464,0,0,0-1.044-.232,13.258,13.258,0,0,0-2.1-.154H10.406A1.017,1.017,0,0,0,9.4,7.567L8.044,16.16,8,16.411a1.159,1.159,0,0,1,1.146-.982h2.387c4.689,0,8.36-1.9,9.433-7.412.032-.163.059-.322.083-.477a5.72,5.72,0,0,0-.882-.372q-.12-.04-.24-.075Z" transform="translate(-1.061 -0.889)" fill="#222d65"/><path d="M8.34,6.679a1.014,1.014,0,0,1,1.005-.86h6.378a13.258,13.258,0,0,1,2.1.154,8.464,8.464,0,0,1,1.285.306,5.806,5.806,0,0,1,.882.372,5.2,5.2,0,0,0-1.1-4.677C17.677.592,15.487,0,12.684,0H4.547A1.163,1.163,0,0,0,3.4.983L.009,22.465a.7.7,0,0,0,.69.808H5.722l1.261-8Z" fill="#253b80"/></g></g></svg>