<svg xmlns="http://www.w3.org/2000/svg" xmlns:xlink="http://www.w3.org/1999/xlink" width="176.54" height="176.539" viewBox="0 0 176.54 176.539"><defs><filter id="a" x="0" y="0" width="176.54" height="176.539" filterUnits="userSpaceOnUse"><feOffset dx="9" dy="10" input="SourceAlpha"/><feGaussianBlur stdDeviation="7" result="b"/><feFlood flood-opacity="0.471"/><feComposite operator="in" in2="b"/><feComposite in="SourceGraphic"/></filter></defs><g transform="translate(11.934 11.031)"><g transform="matrix(1, 0, 0, 1, -11.93, -11.03)" filter="url(#a)"><path d="M67.336-.031A67.269,67.269,0,1,1,.066,67.238,67.27,67.27,0,0,1,67.336-.031Zm0,0" transform="translate(11.93 11.03)" fill="#f01010" fill-rule="evenodd"/></g><path d="M79.145,160.586h-5.7c-.933-.106-2.072-.106-3.211-.208-.31.1-.417.417-.521.83a1.194,1.194,0,0,0,.211,1.036l1.242.1a18.344,18.344,0,0,1,3.42.933,3.094,3.094,0,0,1,1.449,2.071,13.411,13.411,0,0,1,.207,3.73q-.159,3.263-.311,7.769c-.106,3.009-.312,6.116-.521,9.33-.2,4.968-.651,17.074-2,20.658A2.941,2.941,0,0,1,71.96,208.5a8.822,8.822,0,0,1-2.6.725l-1.662.207c-.31.2-.414.519-.31,1.038a1.265,1.265,0,0,0,.414.933c1.347-.1,2.593-.208,3.943-.313h8.2c1.554.1,2.9.21,4.149.313a1.086,1.086,0,0,0,.519-.933,1.321,1.321,0,0,0-.417-1.038l-2.9-.207a4.211,4.211,0,0,1-2.18-.725,2.241,2.241,0,0,1-.624-.852,15.928,15.928,0,0,1-.594-5.513c.067-3.212.106-6.423.208-9.636s.208-6.013.31-8.395c.1-2.175.314-4.458.414-6.737s.206-4.559.313-6.839h.206c.83,1.761,1.66,3.523,2.385,5.491.83,1.867,1.658,3.733,2.485,5.5l6.944,14.814Q92.1,198.2,93.339,201c.935,1.969,1.865,3.832,2.7,5.7.439.988.818,1.913,1.14,2.783a18.851,18.851,0,0,1,.728,2.132,1.031,1.031,0,0,0,1.453,0c.644-1.544,1.317-3.107,2.066-4.6,1.963-4.405,4.01-8.613,6.322-12.849l6.736-13.368c.519-1.143,1.036-2.386,1.761-3.732.726-1.45,1.45-2.8,2.074-3.937a17.915,17.915,0,0,1,1.136-2.384h.1l.21,32.023a21.431,21.431,0,0,1-.1,3.828,2.079,2.079,0,0,1-1,1.808c-.418.517-1.247.723-2.6.83l-2.284.207a1.061,1.061,0,0,0-.208,1.038,1.265,1.265,0,0,0,.418.933c1.554-.1,3.212-.208,4.769-.313h8.927q2.331.157,4.671.313a1.009,1.009,0,0,0,.413-.933,1.21,1.21,0,0,0-.207-1.038l-2.491-.207a3.979,3.979,0,0,1-2.494-.937,3.345,3.345,0,0,1-1.034-1.971,29.275,29.275,0,0,1-.21-3.32c-.212-3.855-.357-7.773-.457-11.636-.1-4.15-.313-8.084-.415-11.811V169.7a21.757,21.757,0,0,1,.31-4.146,3.841,3.841,0,0,1,1.451-2.277,10.516,10.516,0,0,1,3.627-.933l1.556-.1a1.06,1.06,0,0,0,.209-1.036,1.18,1.18,0,0,0-.312-.83c-1.245.1-2.489.1-3.628.208h-5.6c-.935-.106-1.973-.106-3.316-.208a19.611,19.611,0,0,1-1.659,6.012c-1.14,2.379-2.485,5.286-4.143,8.7L106.708,189.7a118.639,118.639,0,0,1-5.9,11.534H100.6c-1.834-3.46-3.525-7.051-5.188-10.6L86.607,173.02c-1.138-2.487-2.176-4.868-3.005-7.044a14.982,14.982,0,0,1-.933-5.6C81.426,160.48,80.284,160.48,79.145,160.586Zm-42.52,39.391A42.821,42.821,0,0,1,36.31,206c-.209,2.664-1.967,3.537-4.447,3.707l-1.588.211a1.433,1.433,0,0,0,.11,2.008c3.274-.2,6.235-.318,9.52-.318,3.5,0,6.769.154,10.261.318a1.987,1.987,0,0,0,.425-.95,1.393,1.393,0,0,0-.318-1.058l-2.116-.211a6.285,6.285,0,0,1-3.49-.956c-.038-.027-.077-.056-.114-.085a3.97,3.97,0,0,1-1.291-2.6,32.808,32.808,0,0,1-.21-6.015v-7.4a30.283,30.283,0,0,1-6.34-.316Zm-6.78-38.593a1.088,1.088,0,0,0,.425,1.056l2.747.313a4.025,4.025,0,0,1,2.534.954,3.181,3.181,0,0,1,.95,2.323c.107,1.161.211,2.856.211,5.07v15.635a63.191,63.191,0,0,0,6.34,0v-21.55a3.934,3.934,0,0,1,.21-2.007,1.382,1.382,0,0,1,1.055-.737,23.1,23.1,0,0,1,3.066-.106c4.013.106,7.077,1.16,9.295,3.379,2.113,2.216,3.168,5.281,3.168,9.087a12.85,12.85,0,0,1-2.533,8.552,12.206,12.206,0,0,1-7.079,4.227,54.892,54.892,0,0,1-13.2.949c-5.071-.1-10.564-.419-16.585-1.052,6.657,1.373,11.62,2.322,14.792,2.638a54.611,54.611,0,0,0,15-.208,30.907,30.907,0,0,0,6.656-1.691,37.133,37.133,0,0,0,5.811-3.383,11.64,11.64,0,0,0,3.17-4.014,16.947,16.947,0,0,0,1.265-6.129,14.883,14.883,0,0,0-1.9-6.971A13.446,13.446,0,0,0,60.9,162.97a21.625,21.625,0,0,0-6.549-2.434A50.734,50.734,0,0,0,45.8,159.9c-3.17,0-6.023,0-8.557.1s-4.86.212-6.869.423A1.119,1.119,0,0,0,29.845,161.384Zm0,0" transform="translate(-14.673 -115.156)" fill="#fff" fill-rule="evenodd"/></g></svg>