<svg xmlns="http://www.w3.org/2000/svg" xmlns:xlink="http://www.w3.org/1999/xlink" width="181" height="181" viewBox="0 0 181 181"><defs><filter id="a" x="0" y="0" width="181" height="181" filterUnits="userSpaceOnUse"><feOffset dx="9" dy="10" input="SourceAlpha"/><feGaussianBlur stdDeviation="7" result="b"/><feFlood flood-opacity="0.471"/><feComposite operator="in" in2="b"/><feComposite in="SourceGraphic"/></filter></defs><g transform="translate(-643 -5235)"><g transform="matrix(1, 0, 0, 1, 643, 5235)" filter="url(#a)"><circle cx="69.5" cy="69.5" r="69.5" transform="translate(12 11)" fill="#fff"/></g><g transform="translate(689.441 5211.575)"><path d="M71.117,124.292a4.2,4.2,0,0,1-4.2,4.2H4.2a4.2,4.2,0,0,1-4.2-4.2V83.655a4.2,4.2,0,0,1,4.2-4.2h62.71a4.2,4.2,0,0,1,4.2,4.2v40.637Z" transform="translate(0 0)" fill="#fff"/><path d="M42.05,199.219l-1.67-8.011a1.992,1.992,0,0,0-2.154-1.477H30.57l-.068.366C36.465,191.544,40.41,195.031,42.05,199.219Z" transform="translate(-26.265 -94.963)" fill="#f79f1a"/><g transform="translate(0 79.451)"><path d="M191.535,190.892h-4.947l-3.089,18.13h4.938Z" transform="translate(-158.011 -175.413)" fill="#059bbf"/><path d="M75.491,209.081l7.78-18.1H78.035L73.2,203.347l-.517-1.867a19.344,19.344,0,0,0-6.843-7.514l4.424,15.121Z" transform="translate(-56.691 -175.489)" fill="#059bbf"/><path d="M255.465,201.173c.018-2.058-1.3-3.628-4.151-4.925-1.731-.838-2.786-1.4-2.773-2.246,0-.751.893-1.557,2.829-1.557a9.123,9.123,0,0,1,3.7.695l.447.2.67-3.928a12.812,12.812,0,0,0-4.43-.757c-4.883,0-8.321,2.457-8.352,5.982-.031,2.606,2.457,4.058,4.331,4.927,1.923.885,2.569,1.452,2.556,2.246-.012,1.214-1.533,1.768-2.954,1.768a10.368,10.368,0,0,1-4.654-.951l-.632-.29-.694,4.063a15.591,15.591,0,0,0,5.5.963C252.052,207.367,255.428,204.941,255.465,201.173Z" transform="translate(-207.831 -173.49)" fill="#059bbf"/><path d="M346.614,206.421l6.329.006c.149.631.6,2.718.6,2.718h4.585l-4-18.118h-3.816a2.459,2.459,0,0,0-2.587,1.5l-7.34,16.617h5.194S346.422,206.912,346.614,206.421Zm3.388-8.78c-.024.05.41-1.049.658-1.731l.335,1.563s.943,4.331,1.142,5.237h-4.1C348.445,201.668,350,197.641,350,197.641Z" transform="translate(-293.105 -175.529)" fill="#059bbf"/><path d="M66.913,79.451H4.2a4.2,4.2,0,0,0-4.2,4.2v4.363H71.117V83.655A4.2,4.2,0,0,0,66.913,79.451Z" transform="translate(0 -79.451)" fill="#059bbf"/></g><path d="M66.913,379.438H4.2a4.2,4.2,0,0,1-4.2-4.2v-4.363H71.117v4.363A4.2,4.2,0,0,1,66.913,379.438Z" transform="translate(0 -250.942)" fill="#f79f1a"/><path d="M2.989,124.292V83.655a4.2,4.2,0,0,1,4.2-4.2H4.2a4.2,4.2,0,0,0-4.2,4.2v40.638a4.2,4.2,0,0,0,4.2,4.2H7.193A4.2,4.2,0,0,1,2.989,124.292Z" transform="translate(0 0)" fill="#202121" opacity="0.15"/></g></g></svg>